<svg width="24" height="24" viewBox="0 0 24 24" fill="none" xmlns="http://www.w3.org/2000/svg">
<path d="M7.53641 6.2636C7.18494 5.91213 6.61509 5.91213 6.26362 6.2636C5.91215 6.61508 5.91215 7.18492 6.26362 7.5364L10.7272 12L6.26362 16.4636C5.91215 16.8151 5.91215 17.3849 6.26362 17.7364C6.61509 18.0879 7.18494 18.0879 7.53641 17.7364L12 13.2728L16.4636 17.7364C16.8151 18.0879 17.3849 18.0879 17.7364 17.7364C18.0879 17.3849 18.0879 16.8151 17.7364 16.4636L13.2728 12L17.7364 7.5364C18.0879 7.18492 18.0879 6.61508 17.7364 6.2636C17.3849 5.91213 16.8151 5.91213 16.4636 6.2636L12 10.7272L7.53641 6.2636Z" fill="white"/>
</svg>
